<?xml version="1.0" encoding="iso-8859-1"?>
<!-- Generator: Adobe Illustrator 19.0.0, SVG Export Plug-In . SVG Version: 6.00 Build 0)  -->
<svg version="1.1" id="Capa_1" xmlns="http://www.w3.org/2000/svg" xmlns:xlink="http://www.w3.org/1999/xlink" x="0px" y="0px"
	 viewBox="0 0 512 512" style="enable-background:new 0 0 512 512;" xml:space="preserve">
<path style="fill:#F09235;" d="M293.959,14.618L293.959,14.618c13.506,12.209,32.062,17.187,49.858,13.356l0,0
	c28.407-6.1,56.823,10.302,65.748,37.959l0,0c5.597,17.311,19.174,30.879,36.493,36.467l0,0
	c27.657,8.925,44.059,37.341,37.959,65.748l0,0c-3.84,17.814,1.139,36.387,13.365,49.894l0,0c19.491,21.557,19.491,54.36,0,75.917
	l0,0c-12.209,13.506-17.187,32.062-13.356,49.858l0,0c6.1,28.407-10.302,56.823-37.959,65.748l0,0
	c-17.311,5.597-30.879,19.174-36.467,36.493l0,0c-8.925,27.657-37.341,44.059-65.748,37.959l0,0
	c-17.814-3.84-36.387,1.139-49.894,13.365l0,0c-21.557,19.491-54.36,19.491-75.917,0l0,0
	c-13.506-12.209-32.062-17.187-49.858-13.356l0,0c-28.407,6.1-56.823-10.302-65.748-37.959l0,0
	c-5.597-17.311-19.173-30.879-36.493-36.467l0,0c-27.657-8.925-44.058-37.341-37.959-65.748l0,0
	c3.84-17.814-1.139-36.387-13.365-49.894l0,0c-19.491-21.557-19.491-54.36,0-75.917l0,0c12.209-13.506,17.187-32.062,13.356-49.858
	l0,0c-6.1-28.407,10.302-56.823,37.959-65.748l0,0c17.311-5.597,30.879-19.174,36.467-36.493l0,0
	c8.925-27.657,37.341-44.058,65.748-37.959l0,0c17.814,3.84,36.387-1.139,49.894-13.365l0,0
	C239.59-4.873,272.402-4.873,293.959,14.618z"/>
<path style="fill:#E88B2E;" d="M497.382,218.041L497.382,218.041c-12.209-13.506-17.187-32.062-13.356-49.858
	c6.1-28.407-10.302-56.823-37.959-65.748c-0.335-0.106-0.644-0.265-0.971-0.38C380.725,305.867,199.751,385.421,81.302,417.368
	c9.94,7.044,17.337,17.108,21.098,28.69c8.925,27.657,37.341,44.059,65.748,37.959c17.814-3.84,36.387,1.139,49.894,13.365
	c21.557,19.491,54.36,19.491,75.917,0c13.506-12.209,32.062-17.187,49.858-13.356c28.407,6.1,56.823-10.302,65.748-37.959
	c5.597-17.311,19.174-30.879,36.493-36.467c27.657-8.925,44.059-37.341,37.959-65.748l0,0c-3.84-17.814,1.139-36.387,13.365-49.894
	C516.873,272.402,516.873,239.59,497.382,218.041z"/>
<circle style="fill:#BF7341;" cx="256" cy="256" r="194.207"/>
<g>
	<path style="fill:#D68033;" d="M71.892,194.207c-3.849,11.485-6.621,23.305-8.254,35.31c-2.463,17.567-2.463,35.399,0,52.966
		c1.633,12.006,4.405,23.826,8.254,35.31h34.039V194.207H71.892z"/>
	<polygon style="fill:#D68033;" points="141.241,282.483 141.241,317.793 141.241,370.759 141.241,406.069 194.207,406.069 
		194.207,370.759 194.207,317.793 194.207,282.483 	"/>
	<polygon style="fill:#D68033;" points="141.241,105.931 141.241,141.241 141.241,194.207 141.241,229.517 194.207,229.517 
		194.207,194.207 194.207,141.241 194.207,105.931 	"/>
	<polygon style="fill:#D68033;" points="317.793,282.483 317.793,317.793 317.793,370.759 317.793,406.069 370.759,406.069 
		370.759,370.759 370.759,317.793 370.759,282.483 	"/>
	<polygon style="fill:#D68033;" points="317.793,105.931 317.793,141.241 317.793,194.207 317.793,229.517 370.759,229.517 
		370.759,194.207 370.759,141.241 370.759,105.931 	"/>
	<polygon style="fill:#D68033;" points="229.517,194.207 229.517,229.517 229.517,282.483 229.517,317.793 282.483,317.793 
		282.483,282.483 282.483,229.517 282.483,194.207 	"/>
	<path style="fill:#D68033;" d="M229.517,370.759v77.603c17.567,2.463,35.399,2.463,52.965,0v-77.603H229.517z"/>
	<path style="fill:#D68033;" d="M256,61.793c-8.863,0.018-17.708,0.627-26.483,1.845v77.603h52.965V63.638
		C273.708,62.42,264.854,61.811,256,61.793z"/>
	<path style="fill:#D68033;" d="M448.362,229.517c-1.633-12.006-4.405-23.826-8.254-35.31h-34.039v123.586h34.039
		c3.849-11.485,6.621-23.305,8.254-35.31C450.825,264.916,450.825,247.084,448.362,229.517z"/>
</g>
<g>
	<polygon style="fill:#F09E3E;" points="194.207,229.517 141.241,229.517 105.931,229.517 105.931,282.483 141.241,282.483 
		194.207,282.483 229.517,282.483 229.517,229.517 	"/>
	<polygon style="fill:#F09E3E;" points="370.759,229.517 317.793,229.517 282.483,229.517 282.483,282.483 317.793,282.483 
		370.759,282.483 406.069,282.483 406.069,229.517 	"/>
	<path style="fill:#F09E3E;" d="M194.207,406.069h-52.966v6.577c25.988,19.076,56.338,31.356,88.276,35.716v-42.293H194.207z"/>
	<path style="fill:#F09E3E;" d="M317.793,406.069h-35.31v42.293c31.938-4.361,62.287-16.64,88.276-35.716v-6.577H317.793z"/>
	<path style="fill:#F09E3E;" d="M194.207,71.892c-18.97,6.356-36.838,15.625-52.966,27.463v6.577h88.276V63.638
		C217.512,65.271,205.692,68.034,194.207,71.892z"/>
	<path style="fill:#F09E3E;" d="M317.793,71.892c-11.485-3.849-23.305-6.621-35.31-8.254v42.293h88.276v-6.577
		C354.631,87.517,336.764,78.248,317.793,71.892z"/>
	<polygon style="fill:#F09E3E;" points="282.483,317.793 229.517,317.793 194.207,317.793 194.207,370.759 229.517,370.759 
		282.483,370.759 317.793,370.759 317.793,317.793 	"/>
	<path style="fill:#F09E3E;" d="M105.931,317.793H71.892c6.356,18.97,15.625,36.838,27.463,52.966h41.887v-52.966H105.931z"/>
	<path style="fill:#F09E3E;" d="M406.069,317.793h-35.31v52.966h41.887c11.838-16.128,21.107-33.995,27.463-52.966H406.069z"/>
	<polygon style="fill:#F09E3E;" points="282.483,141.241 229.517,141.241 194.207,141.241 194.207,194.207 229.517,194.207 
		282.483,194.207 317.793,194.207 317.793,141.241 	"/>
	<path style="fill:#F09E3E;" d="M105.931,141.241h-6.577c-11.838,16.128-21.107,33.995-27.463,52.966h69.35v-52.966H105.931z"/>
	<path style="fill:#F09E3E;" d="M412.646,141.241h-41.887v52.966h69.35C433.752,175.236,424.483,157.369,412.646,141.241z"/>
</g>
<g>
</g>
<g>
</g>
<g>
</g>
<g>
</g>
<g>
</g>
<g>
</g>
<g>
</g>
<g>
</g>
<g>
</g>
<g>
</g>
<g>
</g>
<g>
</g>
<g>
</g>
<g>
</g>
<g>
</g>
</svg>
