<?xml version="1.0" encoding="iso-8859-1"?>
<!-- Generator: Adobe Illustrator 19.0.0, SVG Export Plug-In . SVG Version: 6.00 Build 0)  -->
<svg version="1.1" id="Capa_1" xmlns="http://www.w3.org/2000/svg" xmlns:xlink="http://www.w3.org/1999/xlink" x="0px" y="0px"
	 viewBox="0 0 512.002 512.002" style="enable-background:new 0 0 512.002 512.002;" xml:space="preserve">
<path style="fill:#F09E3E;" d="M256.001,0.011C114.626,0.011,0.014,114.623,0.014,255.998s114.611,255.987,255.987,255.987
	s255.987-114.611,255.987-255.987S397.376,0.011,256.001,0.011z M256.001,344.269c-48.752,0-88.271-39.519-88.271-88.271
	s39.519-88.271,88.271-88.271s88.271,39.519,88.271,88.271S304.753,344.269,256.001,344.269z"/>
<path style="fill:#F09235;" d="M450.401,89.554c-8.068,252.332-217.659,335.431-356.272,364.737
	c109.483,89.41,270.719,73.133,360.129-36.35C532.617,321.963,530.993,183.651,450.401,89.554z"/>
<path style="fill:#BF7341;" d="M470.783,300.963c-19.384-26.843-19.384-63.087,0-89.931c24.804-33.923,17.416-81.527-16.507-106.332
	c-15.094-11.043-33.728-16.136-52.345-14.309c-32.775,3.531-64.023-14.697-77.078-44.965l0,0
	C308.54,7.391,264.484-10.228,226.439,6.084c-17.681,7.583-31.769,21.671-39.343,39.343l0,0
	c-13.046,30.242-44.268,48.47-77.017,44.965c-41.823-4.105-79.056,26.473-83.16,68.296c-1.827,18.616,3.266,37.25,14.309,52.345
	c19.384,26.843,19.384,63.087,0,89.931l0,0c-24.804,33.923-17.416,81.527,16.507,106.332c15.094,11.043,33.728,16.136,52.345,14.309
	c32.766-3.531,64.014,14.697,77.07,44.965c16.313,38.036,60.369,55.655,98.414,39.343c17.681-7.583,31.769-21.671,39.343-39.343
	c13.046-30.242,44.268-48.47,77.017-44.965c41.823,4.105,79.056-26.473,83.16-68.296c1.827-18.616-3.266-37.25-14.309-52.345
	L470.783,300.963L470.783,300.963z M256.001,344.269c-48.752,0-88.271-39.519-88.271-88.271s39.519-88.271,88.271-88.271
	s88.271,39.519,88.271,88.271S304.753,344.269,256.001,344.269z"/>
<path style="fill:#B56D3E;" d="M470.783,300.963c-19.384-26.843-19.384-63.087,0-89.931c16.542-22.509,19.296-52.327,7.141-77.485
	C444.275,333.924,304.383,415.31,175.153,447.573c4.917,5.702,8.96,12.102,11.996,18.996c16.313,38.036,60.369,55.655,98.414,39.343
	c17.681-7.583,31.769-21.671,39.343-39.343c13.047-30.242,44.268-48.47,77.017-44.965c41.823,4.105,79.056-26.473,83.16-68.296
	c1.827-18.616-3.266-37.251-14.309-52.345H470.783z"/>
<g>
	
		<rect x="232.857" y="75.04" transform="matrix(-0.7071 0.7071 -0.7071 -0.7071 488.7831 -34.7271)" style="fill:#965735;" width="37.453" height="17.654"/>
	
		<rect x="303.483" y="119.184" transform="matrix(-0.7071 0.7071 -0.7071 -0.7071 640.564 -9.308)" style="fill:#965735;" width="37.453" height="17.654"/>
	
		<rect x="75.047" y="162.245" transform="matrix(-0.7071 0.7071 -0.7071 -0.7071 271.1476 249.6298)" style="fill:#965735;" width="17.654" height="37.453"/>
	
		<rect x="126.906" y="189.788" transform="matrix(-0.7071 0.7071 -0.7071 -0.7071 389.0525 236.0792)" style="fill:#965735;" width="37.453" height="17.654"/>
	
		<rect x="92.68" y="285.818" transform="matrix(-0.7071 0.7071 -0.7071 -0.7071 388.6282 448.1133)" style="fill:#965735;" width="17.654" height="37.453"/>
	
		<rect x="126.932" y="357.503" transform="matrix(-0.7071 0.7071 -0.7071 -0.7071 507.6883 522.3678)" style="fill:#965735;" width="37.453" height="17.654"/>
	
		<rect x="233.923" y="382.914" transform="matrix(-0.7071 0.7071 -0.7071 -0.7071 698.4025 513.9937)" style="fill:#965735;" width="17.654" height="37.453"/>
	
		<rect x="312.295" y="375.167" transform="matrix(-0.7071 0.7071 -0.7071 -0.7071 836.614 421.4503)" style="fill:#965735;" width="37.453" height="17.654"/>
	
		<rect x="383.992" y="162.24" transform="matrix(-0.7071 0.7071 -0.7071 -0.7071 798.5468 31.1651)" style="fill:#965735;" width="17.654" height="37.453"/>
	
		<rect x="391.736" y="260.412" transform="matrix(-0.7071 0.7071 -0.7071 -0.7071 891.084 169.3792)" style="fill:#965735;" width="37.453" height="17.654"/>
	
		<rect x="172.141" y="109.285" transform="matrix(-0.7071 0.7071 -0.7071 -0.7071 399.4489 90.5654)" style="fill:#965735;" width="17.654" height="37.453"/>
	
		<rect x="400.564" y="348.665" transform="matrix(-0.7071 0.7071 -0.7071 -0.7071 968.5585 313.7937)" style="fill:#965735;" width="37.453" height="17.654"/>
</g>
<g>
</g>
<g>
</g>
<g>
</g>
<g>
</g>
<g>
</g>
<g>
</g>
<g>
</g>
<g>
</g>
<g>
</g>
<g>
</g>
<g>
</g>
<g>
</g>
<g>
</g>
<g>
</g>
<g>
</g>
</svg>
