<svg height="512" viewBox="0 0 58 58" width="512" xmlns="http://www.w3.org/2000/svg"><g id="Page-1" fill="none" fill-rule="evenodd"><g id="012---Love-Muffin" fill-rule="nonzero" transform="translate(-1)"><path id="Shape" d="m52 34-7.32 21.95c-.4057273 1.2241323-1.550382 2.0503796-2.84 2.05h-23.68c-1.289618.0003796-2.4342727-.8258677-2.84-2.05l-7.32-21.95 4.12-2.44 1.78-1.04 16.1-9.52 16.1 9.52 1.78 1.04z" fill="#e64c3c"/><g fill="#c03a2b"><path id="Shape" d="m22 58h-2.04l-7.84-26.44-.38-1.28c-.1546397-.5301934.1498066-1.0853603.68-1.24.5294752-.1482322 1.0803435.1538568 1.24.68l.24.8 8.06 27.2c.0280076.0906418.0415076.1851418.04.28z"/><path id="Shape" d="m26 58h-2l-2.74-26.68c-.0279908-.2639182.0500791-.5281387.2170134-.7344619.1669342-.2063232.4090391-.3378245.6729866-.3655381.2634907-.0313025.5283911.0458015.7339236.2136217.2055325.1678201.3340537.4119502.3560764.6763783l2.75 26.79c0 .04.01.06.01.1z"/><path id="Shape" d="m48.26 30.28-.38 1.28-7.84 26.44h-2.04c-.0015076-.0948582.0119924-.1893582.04-.28l8.06-27.2.24-.8c.1596565-.5261432.7105248-.8282322 1.24-.68.5301934.1546397.8346397.7098066.68 1.24z"/><path id="Shape" d="m38.74 31.32-2.74 26.68h-2c0-.04.01-.06.01-.1l2.75-26.79c.0239063-.2636547.152937-.5065875.3579991-.6740235.2050621-.1674361.4688913-.2452787.7320009-.2159765.2639475.0277136.5060524.1592149.6729866.3655381.1669343.2063232.2450042.4705437.2170134.7344619z"/><path id="Shape" d="m31 31.98v26.02h-2v-26.02c0-.5522847.4477153-1 1-1s1 .4477153 1 1z"/></g><path id="Shape" d="m54.358 19.343c.4573483-1.1411922.6758478-2.3640405.642-3.593-.1716261-3.5917238-2.4229214-6.75315048-5.761-8.09-1.4275534-.60536177-2.9959786-.79933662-4.528-.56-.4831295.07673233-.9489563-.21419613-1.092-.682-.7890842-2.63135832-2.7367512-4.75824035-5.2886679-5.77530574-2.5519166-1.0170654-5.4286097-.81293025-7.8113321.55430574-.321442.18702466-.718558.18702466-1.04 0-2.3827224-1.36723599-5.2594155-1.57137114-7.8113321-.55430574-2.5519167 1.01706539-4.4995837 3.14394742-5.2886679 5.77530574-.1430437.46780387-.6088705.75873233-1.092.682-1.5312316-.23813588-3.0985442-.04347738-4.525.562-3.33783471 1.33624446-5.58943768 4.4967729-5.762 8.088-.0348004 1.2287517.18267673 2.4515926.639 3.593.2023126.4943553-.02491676 1.0599925-.513 1.277-2.52184369 1.1269773-4.14515169 3.6315783-4.14400473 6.3937825s1.62653439 5.2654562 4.14931312 6.3903389c2.52277874 1.1248826 5.47116791.6610333 7.52669161-1.1841214.3614466-.3229458.9046831-.3331474 1.278-.024 2.8860229 2.367146 7.0277552 2.4161705 9.969.118.3485376-.2698563.8354624-.2698563 1.184 0 2.8835829 2.2546846 6.9324171 2.2546846 9.816 0 .3485376-.2698563.8354624-.2698563 1.184 0 2.9412448 2.2981705 7.0829771 2.249146 9.969-.118.3733169-.3091474.9165534-.2989458 1.278.024 2.0555237 1.8451547 5.0039129 2.309004 7.5266916 1.1841214 2.5227787-1.1248827 4.1481662-3.6281347 4.1493131-6.3903389.001147-2.7622042-1.622161-5.2668052-4.1440047-6.3937825-.486921-.218132-.7126954-.7834534-.51-1.277z" fill="#f5efca"/><path id="Shape" d="m29.97 11.916c1.032694-1.7805912 2.9248045-2.88783464 4.983-2.916 2.95 0 4.982 2.517 4.982 5.5 0 4.024-3.861 6.392-9.539 11.342-.2444077.2120774-.6075923.2120774-.852 0-5.678-4.951-9.544-7.319-9.544-11.342 0-2.982 2.033-5.5 4.983-5.5 2.0596295.02676606 3.953577 1.1341956 4.987 2.916z" fill="#df4d60"/><path id="Shape" d="m35.97 9.1c-.13 3.17-1.51 12.07-13.04 11.01-.17-.17-.34-.34-.49-.51-1.55-1.63-2.44-3.18-2.44-5.1 0-2.98 2.04-5.5 4.99-5.5 2.0581585.02925264 3.949441 1.1381974 4.98 2.92 1.0015907-1.7321293 2.8207201-2.83040041 4.82-2.91.05287-.008629.106467-.01197882.16-.01.3423678.00158294.6838436.03506095 1.02.1z" fill="#ff5364"/></g></g></svg>