<?xml version="1.0" encoding="iso-8859-1"?>
<!-- Generator: Adobe Illustrator 19.0.0, SVG Export Plug-In . SVG Version: 6.00 Build 0)  -->
<svg version="1.1" id="Capa_1" xmlns="http://www.w3.org/2000/svg" xmlns:xlink="http://www.w3.org/1999/xlink" x="0px" y="0px"
	 viewBox="0 0 512.001 512.001" style="enable-background:new 0 0 512.001 512.001;" xml:space="preserve">
<polygon style="fill:#B8DBE0;" points="403.64,457.82 228.144,457.82 228.144,124.379 280.793,54.18 456.289,54.18 403.64,124.379 
	"/>
<g>
	<polygon style="fill:#A1CBE0;" points="456.289,54.18 508.938,124.379 508.938,457.82 403.64,457.82 403.64,124.379 	"/>
	<rect x="280.793" y="1.532" style="fill:#A1CBE0;" width="175.496" height="52.649"/>
</g>
<g>
	<path style="fill:#91C1D9;" d="M496.565,456.873l-40.276-46.998l-40.276,46.998c-3.159,3.677-8.696,4.107-12.372,0.948l0,0
		c-3.677-3.159-4.107-8.696-0.948-12.372l46.936-54.755c3.159-3.677,8.696-4.098,12.372-0.948c0.342,0.29,0.658,0.605,0.948,0.948
		l46.936,54.755c3.159,3.677,2.729,9.214-0.948,12.372l0,0C505.261,460.979,499.724,460.558,496.565,456.873z"/>
	<path style="fill:#91C1D9;" d="M272.018,212.126c-0.009,22.314,14.057,42.215,35.099,49.657l35.099-49.657H272.018z"/>
</g>
<g>
	<rect x="254.469" y="413.911" style="fill:#A1CBE0;" width="35.099" height="17.55"/>
	<rect x="254.469" y="378.812" style="fill:#A1CBE0;" width="122.847" height="17.55"/>
	<rect x="342.217" y="413.911" style="fill:#A1CBE0;" width="35.099" height="17.55"/>
	<rect x="254.469" y="168.217" style="fill:#A1CBE0;" width="122.847" height="17.55"/>
	<rect x="254.469" y="133.153" style="fill:#A1CBE0;" width="122.847" height="17.55"/>
</g>
<polygon style="fill:#B8DBE0;" points="157.946,510.469 26.324,510.469 0,256 184.271,256 "/>
<path style="fill:#F5EADF;" d="M168.397,327.954c-23.446,10.047-50.025,9.872-73.34-0.491c-26.658-11.846-57.37-10.302-82.702,4.177
	l-4.273,2.439l18.243,176.391h131.622l19.305-186.262L168.397,327.954z"/>
<path style="fill:#A1CBE0;" d="M342.217,212.126l-63.178,84.238c-11.627,15.505-8.485,37.512,7.02,49.139
	c6.072,4.554,13.469,7.02,21.06,7.02h70.198V212.126H342.217z"/>
<rect x="350.991" y="255.965" style="fill:#91C1D9;" width="17.55" height="17.55"/>
<path style="fill:#F2E1D0;" d="M168.397,327.954c-9.161,3.887-18.883,6.256-28.808,7.02
	C113.8,391.974,73.612,441.262,22.972,478.002l3.352,32.467h131.622l19.305-186.262L168.397,327.954z"/>
<g>
</g>
<g>
</g>
<g>
</g>
<g>
</g>
<g>
</g>
<g>
</g>
<g>
</g>
<g>
</g>
<g>
</g>
<g>
</g>
<g>
</g>
<g>
</g>
<g>
</g>
<g>
</g>
<g>
</g>
</svg>
