<svg id="Layer_1" enable-background="new 0 0 512.367 512.367" height="512" viewBox="0 0 512.367 512.367" width="512" xmlns="http://www.w3.org/2000/svg"><circle cx="256.224" cy="256.134" fill="#ffec8f" r="240"/><path d="m496.224 256.134c0 132.55-107.45 240-240 240-82.07 0-154.52-41.19-197.79-104.03 66.344-19.259 98.055 25.09 143.28 41.83 48.33 17.89 103.59.82 145.77-28.77 124.819-87.564-13.639-168.454 36.61-273.81 8.97-18.78 23.95-34.96 42.35-44.42 43.13 43.39 69.78 103.18 69.78 169.2z" fill="#fae26e"/><path d="m126.713 103.204c-11.328 11.342-22.465 24.889-22.948 40.912-.071 2.346.129 4.81 1.379 6.796 1.662 2.641 4.896 3.923 8.008 4.155 18.288 1.361 31.337-25.834 52.289-43.487 8.021-6.759 25.051-13.514 21.599-26.472-8.649-32.457-50.483 8.241-60.327 18.096z" fill="#fff"/><path d="m76.482 327.567c5.799 1.787 12.773-.398 16.001-5.537 8.379-13.339-.371-41.757-19.762-36.237-16.107 4.585-10.321 37.435 3.761 41.774z" fill="#fff"/><path d="m144.224 424.134c0 37.644-36.456 64.536-72.34 53.57-22.951-6.965-39.66-28.348-39.66-53.57 0-41.368 43.222-68.09 80-50.61 18.826 8.938 32 28.176 32 50.61z" fill="#f2f2f2"/><path d="m144.224 424.134c0 37.644-36.456 64.536-72.34 53.57 13.096-14.648 32.108-25.238 40.25-43.62 9.789-22.162.184-44.987.09-60.56 18.92 8.99 32 28.27 32 50.61z" fill="#d6d6d6"/><path d="m48.788 406.81c-9.796 15.409 12.895 26.185 21.978 6.204 2.351-5.173 4.095-17.378-3.739-19.234-3.546-.841-6.724 2.382-9.281 4.334-3.305 2.521-6.698 5.141-8.958 8.696z" fill="#fff"/><path d="m496.224 88.134c0 59.224-67.289 92.341-114.18 58.35-18.532-13.435-29.82-34.872-29.82-58.35 0-54.136 57.448-88.45 104.82-64.09 22.887 11.594 39.18 35.874 39.18 64.09z" fill="#f2f2f2"/><path d="m496.224 88.134c0 59.224-67.289 92.341-114.18 58.35 11.78-9.14 26.18-14.23 38.81-22.18 17.4-10.93 31.61-28.13 35.44-48.33 1.86-9.822 1.386-17.849.75-51.93 22.887 11.594 39.18 35.874 39.18 64.09z" fill="#d6d6d6"/><path d="m385.589 48.154c-3.172 6.34-1.481 17.469 11.47 15.804 13.635-1.754 22.864-13.579 22.722-19.844-.155-6.843-8.826-12.347-15.04-10.698-6.839 1.814-15.96 8.357-19.152 14.738z" fill="#fff"/><g fill="#4b1800"><path d="m29.106 335.558c8.519-2.351 13.519-11.161 11.168-19.68-43.543-157.804 91.712-307.997 253.589-280.598 8.702 1.477 16.971-4.392 18.446-13.104 1.476-8.712-4.392-16.971-13.104-18.446-185.496-31.418-339.384 140.884-289.778 320.66 2.347 8.506 11.146 13.521 19.679 11.168z"/><path d="m508.63 213.163c-1.476-8.712-9.737-14.579-18.447-13.104-8.712 1.476-14.579 9.734-13.104 18.446 27.436 162.023-123.002 297.068-280.599 253.579-8.521-2.351-17.329 2.65-19.68 11.168-2.351 8.519 2.649 17.329 11.168 19.68 180.462 49.792 351.965-104.909 320.662-289.769z"/><path d="m424.224 176.134c48.523 0 88-39.477 88-88s-39.477-88-88-88-88 39.477-88 88 39.477 88 88 88zm0-144c30.879 0 56 25.121 56 56s-25.121 56-56 56-56-25.121-56-56 25.122-56 56-56z"/><path d="m88.224 352.134c-39.701 0-72 32.299-72 72s32.299 72 72 72 72-32.299 72-72-32.298-72-72-72zm0 112c-22.056 0-40-17.944-40-40s17.944-40 40-40 40 17.944 40 40-17.944 40-40 40z"/><path d="m176.224 160.134c0 8.837 7.163 16 16 16h128c8.837 0 16-7.163 16-16s-7.163-16-16-16h-128c-8.836 0-16 7.164-16 16z"/><path d="m192.224 232.134h48v120c0 8.837 7.163 16 16 16s16-7.163 16-16v-120h48c8.837 0 16-7.163 16-16s-7.163-16-16-16h-128c-8.837 0-16 7.163-16 16s7.164 16 16 16z"/></g></svg>